# Blender v3.2.1 OBJ File: 'obamium.blend'
# www.blender.org
mtllib obamium.mtl
o Cone
v 0.698107 0.000000 0.698107
v 0.702538 0.007754 0.692444
v 0.692444 0.007754 0.702538
v 0.701871 0.001172 0.696278
v 0.696278 0.001172 0.701871
v 0.701765 0.001923 0.701765
v 0.700342 0.008954 0.696677
v 0.703439 0.003916 0.694273
v 0.702665 0.003591 0.700550
v 0.694274 0.003916 0.703439
v 0.696677 0.008954 0.700342
v 0.700550 0.003591 0.702665
v -0.698107 0.000000 0.698107
v -0.692444 0.007754 0.702538
v -0.702538 0.007754 0.692444
v -0.696278 0.001172 0.701871
v -0.701871 0.001172 0.696278
v -0.701765 0.001923 0.701765
v -0.696677 0.008954 0.700342
v -0.694273 0.003916 0.703439
v -0.700550 0.003591 0.702665
v -0.703439 0.003916 0.694274
v -0.700342 0.008954 0.696677
v -0.702665 0.003591 0.700550
v -0.698107 0.000000 -0.698107
v -0.702538 0.007754 -0.692444
v -0.692444 0.007754 -0.702538
v -0.701871 0.001172 -0.696278
v -0.696278 0.001172 -0.701871
v -0.701765 0.001923 -0.701765
v -0.700342 0.008954 -0.696677
v -0.703439 0.003916 -0.694273
v -0.702665 0.003591 -0.700550
v -0.694274 0.003916 -0.703439
v -0.696677 0.008954 -0.700342
v -0.700550 0.003591 -0.702665
v 0.698107 0.000000 -0.698107
v 0.692444 0.007754 -0.702538
v 0.702538 0.007754 -0.692444
v 0.696278 0.001172 -0.701871
v 0.701871 0.001172 -0.696278
v 0.701765 0.001923 -0.701765
v 0.696677 0.008954 -0.700342
v 0.694273 0.003916 -0.703439
v 0.700550 0.003591 -0.702665
v 0.703439 0.003916 -0.694274
v 0.700342 0.008954 -0.696677
v 0.702665 0.003591 -0.700550
v 0.010093 1.182871 0.000000
v -0.000000 1.182871 -0.010093
v -0.010093 1.182871 0.000000
v -0.000000 1.182871 0.010093
v 0.007898 1.184071 -0.004233
v 0.007898 1.184072 0.004233
v 0.003033 1.190142 0.000000
v -0.004233 1.184071 -0.007898
v 0.004233 1.184072 -0.007898
v -0.000000 1.190142 -0.003033
v -0.007898 1.184071 0.004233
v -0.007898 1.184071 -0.004233
v -0.003033 1.190143 0.000000
v 0.004233 1.184071 0.007898
v -0.004233 1.184072 0.007898
v -0.000000 1.190142 0.003033
vt 0.083434 0.997956
vt 0.384363 0.701103
vt 0.685506 0.997727
vt 0.685902 0.395687
vt 0.384840 0.691938
vt 0.084214 0.395827
vt 0.692710 0.995533
vt 0.391832 0.699203
vt 0.994201 0.699557
vt 0.993896 0.694558
vt 0.390874 0.694760
vt 0.692409 0.398610
vt 0.688117 0.391478
vt 0.689755 0.391025
vt 0.689708 0.392384
vt 0.687321 0.392410
vt 0.692033 0.390529
vt 0.692032 0.392083
vt 0.687346 0.997258
vt 0.689030 0.999683
vt 0.686301 0.999684
vt 0.691077 0.996204
vt 0.693925 0.998244
vt 0.695292 0.996902
vt 0.686448 0.393706
vt 0.689178 0.393706
vt 0.080832 0.391382
vt 0.081627 0.392313
vt 0.079240 0.392286
vt 0.079195 0.390929
vt 0.082498 0.393609
vt 0.079768 0.393608
vt 0.994411 0.698419
vt 0.998945 0.698804
vt 0.997579 0.700145
vt 0.994105 0.695696
vt 0.998645 0.695312
vt 0.997279 0.693971
vt 0.076917 0.390433
vt 0.076917 0.391986
vt 0.080976 0.046015
vt 0.079338 0.046468
vt 0.079385 0.045110
vt 0.081772 0.045083
vt 0.077060 0.046964
vt 0.077061 0.045411
vt 0.690775 0.397939
vt 0.693629 0.395900
vt 0.694995 0.397242
vt 0.687741 0.396153
vt 0.689425 0.393732
vt 0.686698 0.393732
vt 0.082645 0.043787
vt 0.079914 0.043788
vt 0.688427 0.045764
vt 0.687632 0.044833
vt 0.690019 0.044858
vt 0.690064 0.046216
vt 0.686761 0.043537
vt 0.689491 0.043536
vt 0.082375 0.396294
vt 0.080694 0.393873
vt 0.083421 0.393873
vt 0.080727 0.396712
vt 0.077845 0.394597
vt 0.082640 0.999914
vt 0.079911 0.999915
vt 0.079945 0.997071
vt 0.692341 0.046712
vt 0.692343 0.045158
vt 0.380874 0.700218
vt 0.382602 0.698514
vt 0.386203 0.700635
vt 0.381352 0.692823
vt 0.383000 0.692405
vt 0.384838 0.694076
vt 0.383078 0.694523
vt 0.386678 0.692404
vt 0.389240 0.694088
vt 0.387608 0.695830
vt 0.391083 0.695898
vt 0.392042 0.698065
vt 0.388571 0.698132
vt 0.390199 0.699874
vt 0.386156 0.694410
vt 0.384838 0.694745
vn 0.8958 0.4298 -0.1128
vn 0.7806 0.6250 -0.0000
vn 0.8958 0.4298 0.1128
vn -0.1128 0.4298 -0.8958
vn -0.0000 0.6250 -0.7806
vn 0.1128 0.4298 -0.8958
vn 0.1128 0.4298 0.8958
vn 0.0000 0.6250 0.7806
vn -0.1128 0.4298 0.8958
vn -0.8958 0.4298 0.1128
vn -0.7806 0.6250 0.0000
vn -0.8958 0.4298 -0.1128
vn 0.1497 -0.9773 0.1497
vn 0.6282 -0.7739 0.0800
vn 0.5944 -0.5417 0.5943
vn 0.0800 -0.7739 0.6282
vn 0.9944 -0.0561 0.0900
vn 0.9076 0.1343 0.3977
vn 0.7116 0.5870 0.3862
vn 0.3861 0.5870 0.7116
vn 0.3977 0.1343 0.9076
vn 0.0900 -0.0561 0.9944
vn -0.1497 -0.9773 0.1497
vn -0.0800 -0.7739 0.6282
vn -0.5943 -0.5417 0.5944
vn -0.6282 -0.7739 0.0800
vn -0.0900 -0.0561 0.9944
vn -0.3977 0.1343 0.9077
vn -0.3861 0.5870 0.7116
vn -0.7116 0.5870 0.3861
vn -0.9076 0.1343 0.3977
vn -0.9944 -0.0561 0.0900
vn -0.1497 -0.9773 -0.1497
vn -0.6282 -0.7739 -0.0800
vn -0.5944 -0.5417 -0.5944
vn -0.0800 -0.7739 -0.6282
vn -0.9944 -0.0561 -0.0900
vn -0.9076 0.1343 -0.3977
vn -0.7116 0.5870 -0.3862
vn -0.3862 0.5870 -0.7116
vn -0.3977 0.1343 -0.9077
vn -0.0900 -0.0562 -0.9944
vn 0.1497 -0.9773 -0.1497
vn 0.0800 -0.7739 -0.6282
vn 0.5944 -0.5417 -0.5944
vn 0.6282 -0.7739 -0.0800
vn 0.0900 -0.0562 -0.9944
vn 0.3977 0.1343 -0.9077
vn 0.3861 0.5870 -0.7116
vn 0.7116 0.5870 -0.3861
vn 0.9076 0.1343 -0.3977
vn 0.9944 -0.0561 -0.0900
vn 0.6517 0.6856 -0.3243
vn 0.4437 0.8962 -0.0000
vn 0.6517 0.6856 0.3243
vn 0.3243 0.6856 -0.6517
vn 0.0000 0.8962 -0.4437
vn -0.3243 0.6856 -0.6517
vn -0.6517 0.6856 -0.3243
vn -0.4437 0.8962 -0.0000
vn -0.6517 0.6856 0.3243
vn -0.3243 0.6856 0.6517
vn 0.0000 0.8962 0.4437
vn 0.3243 0.6856 0.6517
usemtl Material.001
s 1
f 39/1/1 49/2/2 2/3/3
f 27/4/4 50/5/5 38/6/6
f 3/7/7 52/8/8 14/9/9
f 15/10/10 51/11/11 26/12/12
f 1/13/13 4/14/14 6/15/15 5/16/16
f 4/14/14 8/17/17 9/18/18 6/15/15
f 2/3/3 7/19/19 9/20/18 8/21/17
f 7/19/19 11/22/20 12/23/21 9/20/18
f 3/7/7 10/24/22 12/23/21 11/22/20
f 10/25/22 5/16/16 6/15/15 12/26/21
f 6/15/15 9/18/18 12/26/21
f 13/27/23 16/28/24 18/29/25 17/30/26
f 16/28/24 20/31/27 21/32/28 18/29/25
f 14/9/9 19/33/29 21/34/28 20/35/27
f 19/33/29 23/36/30 24/37/31 21/34/28
f 15/10/10 22/38/32 24/37/31 23/36/30
f 22/39/32 17/30/26 18/29/25 24/40/31
f 18/29/25 21/32/28 24/40/31
f 25/41/33 28/42/34 30/43/35 29/44/36
f 28/42/34 32/45/37 33/46/38 30/43/35
f 26/12/12 31/47/39 33/48/38 32/49/37
f 31/47/39 35/50/40 36/51/41 33/48/38
f 27/4/4 34/52/42 36/51/41 35/50/40
f 34/53/42 29/44/36 30/43/35 36/54/41
f 30/43/35 33/46/38 36/54/41
f 37/55/43 40/56/44 42/57/45 41/58/46
f 40/56/44 44/59/47 45/60/48 42/57/45
f 38/6/6 43/61/49 45/62/48 44/63/47
f 43/61/49 47/64/50 48/65/51 45/62/48
f 39/1/1 46/66/52 48/67/51 47/68/50
f 46/69/52 41/58/46 42/57/45 48/70/51
f 42/57/45 45/60/48 48/70/51
f 49/2/2 53/71/53 55/72/54 54/73/55
f 53/74/53 57/75/56 58/76/57 55/77/54
f 50/5/5 56/78/58 58/76/57 57/75/56
f 56/78/58 60/79/59 61/80/60 58/76/57
f 51/11/11 59/81/61 61/80/60 60/79/59
f 59/81/61 63/82/62 64/83/63 61/80/60
f 52/8/8 62/84/64 64/83/63 63/82/62
f 62/84/64 54/73/55 55/72/54 64/83/63
f 55/77/54 58/76/57 61/85/60 64/86/63
f 3/7/7 14/9/9 20/35/27 10/24/22
f 10/25/22 20/31/27 16/28/24 5/16/16
f 5/16/16 16/28/24 13/27/23 1/13/13
f 2/3/3 49/2/2 54/73/55 7/19/19
f 7/19/19 54/73/55 62/84/64 11/22/20
f 11/22/20 62/84/64 52/8/8 3/7/7
f 51/11/11 15/10/10 23/36/30 59/81/61
f 59/81/61 23/36/30 19/33/29 63/82/62
f 63/82/62 19/33/29 14/9/9 52/8/8
f 15/10/10 26/12/12 32/49/37 22/38/32
f 22/39/32 32/45/37 28/42/34 17/30/26
f 17/30/26 28/42/34 25/41/33 13/27/23
f 50/5/5 27/4/4 35/50/40 56/78/58
f 56/78/58 35/50/40 31/47/39 60/79/59
f 60/79/59 31/47/39 26/12/12 51/11/11
f 27/4/4 38/6/6 44/63/47 34/52/42
f 34/53/42 44/59/47 40/56/44 29/44/36
f 29/44/36 40/56/44 37/55/43 25/41/33
f 49/2/2 39/1/1 47/68/50 53/71/53
f 53/74/53 47/64/50 43/61/49 57/75/56
f 57/75/56 43/61/49 38/6/6 50/5/5
f 39/1/1 2/3/3 8/21/17 46/66/52
f 46/69/52 8/17/17 4/14/14 41/58/46
f 41/58/46 4/14/14 1/13/13 37/55/43
f 1/13/13 13/27/23 25/41/33 37/55/43
